<?xml version="1.0" ?>

<!-- Uploaded to: SVG Repo, www.svgrepo.com, Generator: SVG Repo Mixer Tools -->
<svg width="800px" height="800px" viewBox="0 0 32 32" id="svg5" version="1.1" xmlns="http://www.w3.org/2000/svg" xmlns:svg="http://www.w3.org/2000/svg">

<defs id="defs2"/>

<g id="layer1" transform="translate(-300,-196)">

<path d="m 313,220.00586 c -1.64501,0 -3,1.35499 -3,3 0,1.64501 1.35499,3 3,3 1.64501,0 3,-1.35499 3,-3 0,-1.64501 -1.35499,-3 -3,-3 z m 0,2 c 0.56413,0 1,0.43587 1,1 0,0.56413 -0.43587,1 -1,1 -0.56413,0 -1,-0.43587 -1,-1 0,-0.56413 0.43587,-1 1,-1 z" id="circle39501" style="color:#000000;fill:#000000;fill-rule:evenodd;stroke-linecap:round;stroke-linejoin:round;stroke-miterlimit:4.1;-inkscape-stroke:none"/>

<path d="m 323,220.00586 c -1.64501,0 -3,1.35499 -3,3 0,1.64501 1.35499,3 3,3 1.64501,0 3,-1.35499 3,-3 0,-1.64501 -1.35499,-3 -3,-3 z m 0,2 c 0.56413,0 1,0.43587 1,1 0,0.56413 -0.43587,1 -1,1 -0.56413,0 -1,-0.43587 -1,-1 0,-0.56413 0.43587,-1 1,-1 z" id="circle39503" style="color:#000000;fill:#000000;fill-rule:evenodd;stroke-linecap:round;stroke-linejoin:round;stroke-miterlimit:4.1;-inkscape-stroke:none"/>

<path d="m 322.58594,201.5918 a 1,1 0 0 0 -0.70703,0.29297 1,1 0 0 0 0,1.41406 l 0.70703,0.70703 -0.70703,0.70703 a 1,1 0 0 0 0,1.41406 1,1 0 0 0 1.41406,0 L 324,205.41992 l 0.70703,0.70703 a 1,1 0 0 0 1.41406,0 1,1 0 0 0 0,-1.41406 l -0.70703,-0.70703 0.70703,-0.70703 a 1,1 0 0 0 0,-1.41406 1,1 0 0 0 -0.70703,-0.29297 1,1 0 0 0 -0.70703,0.29297 L 324,202.5918 l -0.70703,-0.70703 a 1,1 0 0 0 -0.70703,-0.29297 z" id="path39509" style="color:#000000;fill:#000000;fill-rule:evenodd;stroke-linecap:round;stroke-linejoin:round;stroke-miterlimit:4.1;-inkscape-stroke:none"/>

<path d="m 303,198 c -0.55228,0 -1,0.44772 -1,1 0,0.55228 0.44772,1 1,1 h 1.18945 l 3.83203,18.20703 c 0.0979,0.46231 0.50597,0.79302 0.97852,0.79297 h 17 c 0.55228,0 1,-0.44772 1,-1 0,-0.55228 -0.44772,-1 -1,-1 h -16.18945 l -0.42188,-2 H 325 c 0.45916,1.8e-4 0.85946,-0.31232 0.9707,-0.75781 l 1.29492,-5.21485 C 328.90874,207.95442 330,206.09933 330,204 c 0,-3.30186 -2.69814,-6 -6,-6 -2.60121,0 -4.8265,1.67494 -5.6543,4 h -11.69336 l -0.67382,-3.20508 C 305.88142,198.3317 305.47315,198.00014 305,198 Z m 21,2 c 2.22098,0 4,1.77902 4,4 0,2.22098 -1.77902,4 -4,4 -2.22098,0 -4,-1.77902 -4,-4 0,-2.22098 1.77902,-4 4,-4 z m -16.92578,4 H 318 c 0,3.30186 2.69814,6 6,6 0.33554,0 0.6635,-0.0305 0.98438,-0.084 l -0.76563,3.08398 H 309 c -0.01,0.002 -0.0196,0.004 -0.0293,0.006 z" id="path1735" style="color:#000000;fill:#000000;fill-rule:evenodd;stroke-linecap:round;stroke-linejoin:round;stroke-miterlimit:4.1;-inkscape-stroke:none"/>

</g>

</svg>